<?xml version="1.0" encoding="UTF-8" standalone="no"?>
<svg
   width="339.61"
   height="127.77"
   version="1.1"
   viewBox="0 0 339.61 127.77"
   id="svg50"
   sodipodi:docname="Custom_logo.svg"
   inkscape:version="1.2 (dc2aedaf03, 2022-05-15)"
   xmlns:inkscape="http://www.inkscape.org/namespaces/inkscape"
   xmlns:sodipodi="http://sodipodi.sourceforge.net/DTD/sodipodi-0.dtd"
   xmlns="http://www.w3.org/2000/svg"
   xmlns:svg="http://www.w3.org/2000/svg">
  <sodipodi:namedview
     id="namedview34"
     pagecolor="#505050"
     bordercolor="#ffffff"
     borderopacity="1"
     inkscape:showpageshadow="0"
     inkscape:pageopacity="0"
     inkscape:pagecheckerboard="1"
     inkscape:deskcolor="#505050"
     showgrid="false"
     inkscape:zoom="1.847069"
     inkscape:cx="169.99906"
     inkscape:cy="64.155697"
     inkscape:window-width="2560"
     inkscape:window-height="1375"
     inkscape:window-x="0"
     inkscape:window-y="0"
     inkscape:window-maximized="1"
     inkscape:current-layer="text1163" />
  <defs
     id="defs24">
    <rect
       x="119.22107"
       y="137.41028"
       width="142.8393"
       height="83.000812"
       id="rect1081" />
    <rect
       x="212.16713"
       y="151.48737"
       width="87.014344"
       height="71.501088"
       id="rect1075" />
    <rect
       x="206.86814"
       y="149.28701"
       width="72.447247"
       height="43.903786"
       id="rect1069" />
    <rect
       x="7.8851164"
       y="8.4370357"
       width="362.28554"
       height="58.563965"
       id="rect1165" />
    <filter
       id="filter51184"
       x="-0.078834664"
       y="-0.074459956"
       width="1.1892032"
       height="1.1824269"
       color-interpolation-filters="sRGB">
      <feFlood
         flood-color="rgb(0,0,0)"
         flood-opacity=".49804"
         result="flood"
         id="feFlood2" />
      <feComposite
         in="flood"
         in2="SourceGraphic"
         operator="in"
         result="composite1"
         id="feComposite4" />
      <feGaussianBlur
         in="composite1"
         result="blur"
         stdDeviation="2.5"
         id="feGaussianBlur6" />
      <feOffset
         dx="2.4"
         dy="2.7"
         result="offset"
         id="feOffset8" />
      <feComposite
         in="SourceGraphic"
         in2="offset"
         result="composite2"
         id="feComposite10" />
    </filter>
    <filter
       id="filter51196"
       x="-0.022670476"
       y="-0.082512824"
       width="1.0544091"
       height="1.2021564"
       color-interpolation-filters="sRGB">
      <feFlood
         flood-color="rgb(0,0,0)"
         flood-opacity=".49804"
         result="flood"
         id="feFlood13" />
      <feComposite
         in="flood"
         in2="SourceGraphic"
         operator="in"
         result="composite1"
         id="feComposite15" />
      <feGaussianBlur
         in="composite1"
         result="blur"
         stdDeviation="2.5"
         id="feGaussianBlur17" />
      <feOffset
         dx="2.4"
         dy="2.7"
         result="offset"
         id="feOffset19" />
      <feComposite
         in="SourceGraphic"
         in2="offset"
         result="composite2"
         id="feComposite21" />
    </filter>
  </defs>
  <filter
     id="d"
     x="-.050914"
     y="-.027844"
     width="1.1018"
     height="1.0557">
    <feGaussianBlur
       stdDeviation="2.97"
       id="feGaussianBlur26" />
  </filter>
  <filter
     id="e"
     x="-.0272"
     y="-.204"
     width="1.0544"
     height="1.408">
    <feGaussianBlur
       stdDeviation="1.7000001"
       id="feGaussianBlur29" />
  </filter>
  <path
     d="m 305.21082,82.876354 c -0.0734,0.0074 -0.15297,0.02881 -0.20796,0.08451 l -2.54316,2.571781 c -0.10686,0.10837 -0.11904,0.27332 -0.0394,0.40327 l 3.01608,4.91756 c -0.52566,0.89498 -0.95117,1.85422 -1.24884,2.87033 l -5.48406,1.1704 c -0.15259,0.0325 -0.26309,0.17848 -0.26219,0.33504 l 0.0202,3.61377 c 8.2e-4,0.1528 0.11772,0.28298 0.26586,0.3182 l 5.33081,1.262875 c 0.29125,1.17286 0.73733,2.29423 1.32509,3.31457 l -3.05922,4.71527 c -0.0854,0.1317 -0.0677,0.30667 0.044,0.41683 l 2.57183,2.54311 c 0.10838,0.10676 0.27362,0.11935 0.40327,0.0394 l 4.82074,-2.95984 c 0.95173,0.54234 1.98136,0.97543 3.06498,1.2616 l 1.15623,5.41443 c 0.0325,0.15284 0.16469,0.26319 0.32112,0.26232 l 3.6138,-0.0202 c 0.15167,-8.2e-4 0.28311,-0.10363 0.31825,-0.25228 l 1.30393,-5.45604 c 1.11423,-0.30715 2.1639,-0.75971 3.13386,-1.33799 l 4.7849,3.10061 c 0.13199,0.0848 0.30595,0.0673 0.41674,-0.0439 l 2.52927,-2.57174 c 0.10744,-0.10849 0.13315,-0.27369 0.0533,-0.40339 l -1.75345,-2.85347 -0.56888,0.18391 c -0.0821,0.0257 -0.17354,-0.0104 -0.22284,-0.0821 0,0 -1.10654,-1.60826 -2.55046,-3.69689 -1.69404,3.36117 -5.17423,5.67232 -9.19735,5.69499 -5.71683,0.032 -10.38061,-4.58015 -10.41315,-10.296975 -0.0235,-4.20521 2.47088,-7.83117 6.06289,-9.47174 l -0.0148,-2.66866 c -0.65409,0.23307 -1.28566,0.51335 -1.88561,0.84452 -10e-4,-8.4e-4 0.001,-0.0132 -10e-5,-0.0132 l -4.89656,-3.169529 c -0.066,-0.04233 -0.13523,-0.04851 -0.20877,-0.04056 z m 14.71067,-6.614983 -6.50126,0.661828 0.15004,26.797331 6.42958,-1.00902 -0.0641,-11.425005 8.73015,12.627615 6.77071,-2.19213 -8.93614,-12.140235 8.87271,-11.544482 -6.93058,-1.545679 -8.52538,11.542841 0.005,-11.773146 z"
     fill="#37abc8"
     fill-opacity="0.1658"
     stroke-width="0.377835"
     id="path32" />
  <path
     transform="matrix(0.35679739,0.20599706,-0.20599706,0.35679739,233.74356,-3.3504925)"
     d="m 313.31,102.7 -16.323,-7.7374 13.292,23.184 -0.90474,0.8135 c -1.9179,1.7245 -9.9815,8.1534 -10.901,8.6914 l -0.96754,0.56585 -32.676,-56.314 6.0195,-4.376 c 3.3107,-2.4068 6.2215,-4.5106 6.4684,-4.6751 0.3457,-0.23036 2.0837,2.4439 7.5616,11.635 l 7.1127,11.934 1.8064,-15.894 c 0.99351,-8.7418 1.8513,-16.299 1.9062,-16.794 0.092,-0.8297 0.74125,-1.105 8.2892,-3.5151 4.5042,-1.4382 8.2736,-2.5996 8.3764,-2.5808 0.10283,0.01874 -0.8435,7.8165 -2.103,17.328 -1.2596,9.5119 -2.2136,17.425 -2.1202,17.585 0.0934,0.15983 7.4876,3.4924 16.431,7.4057 8.9438,3.9133 16.306,7.3062 16.36,7.5398 0.0791,0.34121 -10.248,12.272 -11.076,12.797 -0.12589,0.0794 -7.574,-3.337 -16.552,-7.5926 z"
     fill="#37abc8"
     filter="url(#filter51184)"
     stroke-linecap="round"
     stroke-width="1.4"
     style="paint-order:stroke fill markers"
     id="path34" />
  <g
     transform="matrix(0.41198536,-0.00268929,0.00268929,0.41198536,237.74927,21.33802)"
     fill="#aa0000"
     filter="url(#filter51196)"
     aria-label="Classi"
     id="g48">
    <path
       d="m -15.442,175.56 q 0,1.4583 -1.125,3.2917 -1.125,1.8333 -3.0417,3.875 -1.9167,2 -4.4583,4.1666 -2.5417,2.1667 -5.375,4.3333 -3.8333,2.9167 -8.1666,5.5833 -4.2916,2.6667 -8.75,4.75 -4.4583,2.0417 -8.875,3.25 -4.4166,1.25 -8.4166,1.25 -4.7916,0 -8.2916,-1.375 -3.5,-1.3333 -5.7916,-3.8333 -2.2916,-2.5 -3.4167,-6 -1.0833,-3.5417 -1.0833,-7.8333 0,-3.5833 0.83333,-7.3333 0.83333,-3.75 2.2917,-7.4166 1.5,-3.6666 3.5,-7.0833 2,-3.4167 4.2916,-6.2916 1.3333,-1.6667 3.1667,-3.4583 1.8333,-1.8333 3.875,-3.5833 2.0417,-1.75 4.125,-3.25 2.0833,-1.5417 3.9583,-2.6667 1.3333,-0.79166 3.375,-1.75 2.0417,-1 4.25,-1.8333 2.25,-0.875 4.4166,-1.4583 2.1666,-0.5833 3.75,-0.58333 2.8333,0 4.5,0.375 1.6667,0.375 2.9583,1.3333 0.625,0.45833 1.4167,1.4167 0.79166,0.95833 1.5,2.0833 0.70833,1.125 1.2083,2.25 0.5,1.0833 0.5,1.8333 0,0.5 -0.33333,1.375 -0.29167,0.83333 -0.79166,1.8333 -0.5,1 -1.125,2.0833 -0.625,1.0417 -1.25,2 -0.58333,0.95833 -1.125,1.7083 -0.54166,0.74999 -0.83333,1.125 -1.875,2.2083 -4.7083,2.2083 -2.375,0 -3.7083,-1.3333 -1.2917,-1.3333 -1.2917,-3.3333 0,-0.625 0.70833,-1.9583 0.70833,-1.375 2.3333,-3 0.79166,-0.79167 1.375,-1.5417 0.58333,-0.79166 0.91666,-1.375 -1.0417,-0.375 -2.125,-0.375 -1.2917,0 -3.25,0.66667 -1.9167,0.62499 -4.0417,1.625 -2.0833,0.95833 -4.0833,2.1667 -2,1.2083 -3.375,2.3333 -3.8333,3.125 -7.25,7.0416 -3.4167,3.9166 -5.6666,8.5416 -0.875,1.8333 -1.6667,3.9167 -0.79166,2.0833 -1.375,4.25 -0.58333,2.125 -0.91666,4.2916 -0.33333,2.125 -0.33333,4.0416 0,2.125 0.45833,3.9166 0.45833,1.7916 1.5,3.125 1.0833,1.3333 2.7917,2.0833 1.7083,0.75 4.2083,0.75 2.9583,0 6.2083,-0.79166 3.25,-0.83333 6.5833,-2.2083 3.3333,-1.4167 6.6666,-3.2083 3.375,-1.8333 6.4583,-3.8333 3.125,-2 5.875,-4.0416 2.7917,-2.0417 5.0416,-3.875 0.875,-0.70833 1.9167,-1.6667 1.0833,-0.95833 2.1667,-2 1.125,-1.0417 2.1667,-2.125 1.0833,-1.0833 1.9583,-2 0.95833,0.5 1.5,0.875 0.58333,0.375 0.83333,0.79166 0.29166,0.375 0.375,0.83333 0.08333,0.45833 0.08333,1.0417 z"
       id="path36" />
    <path
       d="m 24.641,177.14 q 0,0.95833 -0.5,2.4167 -0.45833,1.4167 -1.5833,3.3333 -1.125,1.875 -3,4.25 -1.875,2.375 -4.6666,5.2083 -1.5417,1.5417 -3.5,3.0833 -1.9167,1.5417 -4.0833,2.75 -2.1667,1.1667 -4.5,1.9167 -2.2917,0.74999 -4.5833,0.74999 -3.0833,0 -5.7916,-1.0833 -2.6667,-1.0833 -4.6666,-3.2916 -2,-2.25 -3.1667,-5.625 -1.125,-3.375 -1.125,-7.9166 0,-2.9583 0.29167,-6.125 0.29166,-3.2083 0.70833,-6.4583 0.45833,-3.25 1,-6.4166 0.58333,-3.2083 1.125,-6.125 0.375,-2 0.625,-3.5416 0.25,-1.5416 0.45833,-3.0833 0.25,-1.5417 0.54166,-3.2916 0.29166,-1.7917 0.70833,-4.2083 0.20833,-1.1667 0.70833,-2.2083 0.5,-1.0833 1.25,-1.875 0.79166,-0.83333 1.8333,-1.2917 1.0417,-0.5 2.2917,-0.5 3.0833,0 4.5,2.875 l -0.45833,2.375 q -0.375,2 -1,4.7083 -0.58333,2.6666 -1.2917,5.8333 -0.66666,3.1666 -1.375,6.6666 -0.66666,3.4583 -1.25,7.0416 -0.54166,3.5833 -0.91666,7.125 -0.33333,3.5416 -0.33333,6.8333 0,2.5 0.33333,4.5416 0.375,2.0417 1.1667,3.5 0.79166,1.4167 2.0417,2.2083 1.25,0.79166 3,0.79166 1.75,0 3.625,-0.70833 1.875,-0.75 3.75,-1.9167 1.9167,-1.1667 3.7083,-2.6667 1.8333,-1.5 3.4167,-3 1.5833,-1.5417 2.8333,-2.9583 1.25,-1.4583 2.0417,-2.5 0.375,-0.5 0.79166,-1.0417 0.45833,-0.58333 1,-1.0833 0.58333,-0.5 1.2083,-0.83333 0.66666,-0.33333 1.4167,-0.33333 0.58333,0 1,0.5 0.41666,0.45833 0.41666,1.375 z"
       id="path38" />
    <path
       d="m 44.724,170.31 q 0,-0.375 -0.16667,-0.875 -0.125,-0.5 -0.375,-0.91666 -0.20833,-0.45834 -0.5,-0.75 -0.29166,-0.33333 -0.54166,-0.33333 -2.75,0 -5.0416,1.5 -2.25,1.4583 -4.7083,4 -1.375,1.375 -2.9583,3.7083 -1.5417,2.3333 -2.875,4.9583 -1.3333,2.625 -2.2083,5.25 -0.875,2.625 -0.875,4.625 0,0.5 0.04167,1 0.08333,0.45833 0.25,0.83333 0.20833,0.37499 0.54166,0.62499 0.33333,0.25 0.875,0.25 1.5833,0 3.5833,-0.99999 2,-1.0417 4,-2.6667 2.0417,-1.6667 3.9167,-3.7916 1.9167,-2.1667 3.2083,-4.4166 1.5833,-2.75 2.7083,-5.75 1.125,-3 1.125,-6.25 z m 37.875,4.2916 q 0,0.49999 -0.20833,1.2083 -0.16667,0.66667 -0.45833,1.375 -0.29166,0.66666 -0.66666,1.3333 -0.33333,0.62499 -0.66666,1.0833 -0.20833,0.29166 -0.66666,0.83333 -0.45833,0.49999 -1.0417,1.1667 -0.58333,0.625 -1.3333,1.375 -0.70833,0.75 -1.4583,1.5 -2.4167,2.25 -4.9166,4.4583 -2.4583,2.1667 -5.1666,3.875 -2.7083,1.6667 -5.6666,2.7083 -2.9583,1.0416 -6.2916,1.0417 -1.4167,0 -2.875,-0.62499 -1.4583,-0.625 -2.7083,-1.7083 -1.25,-1.0833 -2.2083,-2.5833 -0.91666,-1.5417 -1.2917,-3.2917 -0.75,1.25 -1.9583,2.7083 -1.2083,1.4167 -2.6667,2.8333 -1.4167,1.4167 -2.9583,2.7083 -1.5417,1.25 -2.875,2.1667 -0.91666,0.62499 -2.25,1.2917 -1.2917,0.66666 -2.75,1.25 -1.4583,0.54167 -2.9583,0.91667 -1.4583,0.33333 -2.7083,0.33333 -2,0 -3.5,-1.125 -1.5,-1.1667 -2.5,-2.8333 -0.95833,-1.6667 -1.4583,-3.5416 -0.45833,-1.875 -0.45833,-3.375 0,-2.75 0.79166,-5.5833 0.83333,-2.875 2.0833,-5.5833 1.2917,-2.7083 2.8333,-5.1666 1.5833,-2.4583 3.0833,-4.375 1.5833,-2 3.7917,-3.9583 2.2083,-2 4.625,-3.5416 2.4167,-1.5833 4.75,-2.5417 2.375,-0.95833 4.2083,-0.95833 1,0 2.0417,0.0833 1.0833,0.0417 2.125,0.16666 1.0417,0.125 2,0.375 0.95833,0.25 1.7083,0.625 0.5,0.33333 1.0833,1.2083 0.625,0.83333 1.125,1.8333 0.54166,0.95833 0.91666,1.9167 0.375,0.95833 0.375,1.5 0,1.1667 -0.375,2.7916 -0.33333,1.5833 -0.79166,3.3333 -0.41666,1.75 -0.79166,3.5833 -0.375,1.8333 -0.375,3.5 0,1.1667 0.33333,2.375 0.33333,1.2083 0.95833,2.2083 0.625,0.95833 1.5,1.5833 0.875,0.625 1.9583,0.625 2.4583,0 4.875,-0.91667 2.4167,-0.91666 4.8333,-2.5 2.4167,-1.625 4.8333,-3.7916 2.4167,-2.2083 4.875,-4.75 0.08333,0 0.66666,-0.625 0.58333,-0.62499 1.375,-1.375 0.83333,-0.75 1.7083,-1.375 0.91666,-0.62499 1.5833,-0.62499 1.2083,0 1.5833,0.70833 0.375,0.70833 0.375,2.1667 z"
       id="path40" />
    <path
       d="m 119.6,172.44 q 0,1.125 -1,2.8333 -0.99999,1.6667 -2.5416,3.5416 -1.5,1.875 -3.375,3.8333 -1.875,1.9167 -3.625,3.625 -1.0417,0.99999 -3.0833,2.7916 -2.0417,1.75 -4.5833,3.875 -2.5,2.125 -5.25,4.4166 -2.75,2.25 -5.2083,4.2083 -2.4167,1.9583 -4.2916,3.4167 -1.875,1.4583 -2.6667,2 -2.5833,1.7083 -4.8333,2.625 -2.2083,0.91666 -3.9583,0.91666 -1.4583,0 -2.4583,-0.29166 -1,-0.25 -1.625,-0.70833 -0.625,-0.41667 -0.91666,-1 -0.29167,-0.54167 -0.29167,-1.125 0,-1.4583 0.54166,-2.625 0.54166,-1.125 1.6667,-2.125 1.1667,-0.99999 2.9167,-1.9167 1.7917,-0.95833 4.2083,-1.9583 1.5833,-0.625 2.8333,-1.2083 1.2917,-0.58333 2.2083,-1.25 0.95833,-0.70833 1.4583,-1.5833 0.5,-0.875 0.5,-2.125 0,-0.29166 -0.41666,-1.0833 -0.375,-0.79167 -1,-1.8333 -0.625,-1.0417 -1.4167,-2.25 -0.75,-1.25 -1.5,-2.4167 -0.75,-1.2083 -1.4167,-2.25 -0.6667,-1.0417 -1.0417,-1.75 -1.7083,-3.1667 -1.7083,-6.4583 0,-1.4167 0.25,-2.9167 0.25,-1.5 0.83333,-3.0416 0.54166,-1.9167 1.75,-3.75 1.25,-1.8333 2.75,-3.25 1.5,-1.4583 3,-2.3333 1.5417,-0.87499 2.6667,-0.87499 1.5,0 2.4583,0.29166 0.95833,0.25 1.4583,0.83333 0.54166,0.54167 0.75,1.4167 0.20833,0.83333 0.20833,2.0417 0,1 -0.5,1.9583 -0.5,0.9583 -1.2083,1.7917 -0.70833,0.83333 -1.5,1.5417 -0.79166,0.70833 -1.375,1.25 -0.875,0.79167 -1.6667,1.5 -0.79166,0.66666 -1.25,1.1667 0.04167,2.625 1.2917,4.8333 0.625,1.0833 1.5417,2.6667 0.95833,1.5833 1.9167,3.25 1,1.625 1.875,3.125 0.875,1.5 1.375,2.375 0.625,-0.29166 1.7917,-1.0833 1.2083,-0.83333 2.7917,-1.9583 1.5833,-1.1667 3.375,-2.5833 1.8333,-1.4167 3.6666,-2.9167 1.8333,-1.5 3.5417,-2.9583 1.7083,-1.5 3.0833,-2.8333 1.1667,-1.125 1.9167,-1.9167 0.79166,-0.83333 1.3333,-1.3333 0.58334,-0.54166 1,-0.79166 0.41667,-0.29167 0.91666,-0.29167 0.54167,0 0.875,0.41667 0.375,0.37499 0.58333,0.87499 0.20833,0.45833 0.29167,0.875 0.0833,0.41666 0.0833,0.5 z"
       id="path42" />
    <path
       d="m 118.27,163.89 q 0.625,-0.91666 1.5417,-1.8333 0.91666,-0.91667 1.9167,-1.6667 0.99999,-0.75 1.9167,-1.2083 0.95833,-0.5 1.5833,-0.5 0.91667,0 1.75,0.33333 0.83333,0.33333 1.4583,0.91667 0.66667,0.54166 1.0417,1.2917 0.41666,0.70833 0.41666,1.4583 0,0.95833 -0.54166,2 -0.5,0.99999 -1.2917,2 -0.75,0.95833 -1.6667,1.875 -0.875,0.875 -1.6667,1.6667 -0.75,0.75 -1.2917,1.3333 -0.49999,0.58333 -0.49999,0.91666 0,0.5 0.91666,1.5417 0.91666,1 2.2917,2.25 1.375,1.25 3.0416,2.5833 1.6666,1.3333 3.1667,2.4167 1.3333,0.95833 2.2916,1.9166 1,0.95833 1.2083,1.875 1.5417,-1.2083 2.7083,-2.1667 1.1667,-0.95833 2.4583,-2.1667 1.2916,-1.20837 2.9583,-2.9166 1.7083,-1.7083 4.25,-4.4583 1.375,-1.4583 2.5833,-2.75 1.25,-1.3333 2.2917,-2.2917 1.0833,-0.95833 1.9583,-1.5 0.91666,-0.58333 1.5833,-0.58333 1.0417,0 1.4583,0.79166 0.41666,0.75 0.41666,1.9583 0,0.45833 -0.625,1.625 -0.62499,1.1667 -1.6667,2.7083 -0.99999,1.5 -2.3333,3.2917 -1.2917,1.75 -2.6667,3.4583 -1.3333,1.7083 -2.625,3.2083 -1.25,1.4583 -2.25,2.4167 -0.16666,0.16666 -0.83333,0.79166 -0.625,0.625 -1.5,1.5 -0.875,0.83333 -1.9167,1.8333 -1,0.95833 -1.9167,1.875 -0.91666,0.875 -1.625,1.5833 -0.70834,0.66666 -1,0.95833 -0.20833,0.20833 -0.95833,0.99999 -0.70833,0.79167 -1.7083,1.875 -0.95833,1.0833 -2.0833,2.2916 -1.125,1.2083 -2.125,2.2917 -0.95833,1.0833 -1.75,1.875 -0.74999,0.79166 -0.99999,1.0417 -2.375,2.125 -4.6666,3.5416 -2.25,1.4583 -4.7083,1.4583 -1.1667,0 -2.1666,-0.25 -1,-0.25 -1.75,-0.70833 -0.75,-0.45833 -1.1667,-1.125 -0.41667,-0.66666 -0.41667,-1.5417 0,-1.4583 0.95833,-2.6666 1,-1.2083 2.4583,-2.25 1.5,-1.0833 3.25,-2 1.75,-0.95833 3.2916,-1.8333 2.5,-1.4583 3.6666,-3.2917 1.2083,-1.875 1.2083,-3.7083 0,-1.3333 -1.625,-2.9583 -1.5833,-1.6667 -5.3333,-4.0416 -1.5,-0.95833 -2.7083,-2.0833 -1.2083,-1.1667 -2.0833,-2.2917 -0.83333,-1.1667 -1.2917,-2.25 -0.45833,-1.125 -0.45833,-1.9583 0,-1.5417 0.16667,-2.75 0.20833,-1.25 0.625,-2.4583 0.45833,-1.2083 1.2083,-2.5 0.74999,-1.3333 1.875,-3.0417 z"
       id="path44" />
    <path
       d="m 169.72,142.81 q 0,0.375 -0.16666,1.1667 -0.16667,0.79167 -0.45834,1.7083 -0.25,0.91666 -0.58333,1.8333 -0.33333,0.87499 -0.66666,1.5 -0.29167,0.66667 -1.0833,1.2917 -0.79166,0.58333 -1.7083,1 -0.91666,0.41666 -1.8333,0.66666 -0.91667,0.25 -1.5417,0.25 -0.83333,0 -1.3333,-0.20833 -0.45833,-0.20833 -0.70833,-0.58333 -0.25,-0.375 -0.33333,-0.83333 -0.0417,-0.5 -0.0833,-1 0,-0.0833 -0.0417,-0.375 -0.0417,-0.29166 -0.25,-1.3333 -0.125,-0.375 -0.29167,-0.66667 -0.125,-0.29166 -0.25,-0.625 -0.125,-0.33333 -0.25,-0.74999 -0.0833,-0.45833 -0.0833,-1.0833 0,-0.79167 0.5,-1.7083 0.54166,-0.95833 1.4167,-1.75 0.91666,-0.83333 2.125,-1.375 1.2083,-0.54166 2.625,-0.54166 0.41667,0 1.25,0.33333 0.83333,0.29167 1.6667,0.79166 0.83333,0.5 1.4583,1.125 0.625,0.58333 0.625,1.1667 z m 12.708,46.208 q 0,0.66666 -0.45833,1.75 -0.45833,1.0417 -1.3333,2.2917 -0.875,1.25 -2.1667,2.625 -1.2917,1.3333 -2.9583,2.5833 -0.91667,0.66666 -2.2917,1.5417 -1.3333,0.875 -3.125,1.6667 -1.7917,0.75 -4,1.25 -2.2083,0.54166 -4.8333,0.54166 -3.2916,0 -5.6666,-1.25 -2.3333,-1.25 -3.8333,-3.25 -1.5,-2.0417 -2.2083,-4.5833 -0.70833,-2.5833 -0.70833,-5.2083 0,-1.8333 0.20834,-3.8333 0.20833,-2.0417 0.49999,-4 0.29167,-1.9583 0.66667,-3.7917 0.375,-1.875 0.66666,-3.375 0.29167,-1.5 0.5,-2.5417 0.20833,-1.0833 0.20833,-1.5 0,-0.95833 0.20833,-2.0833 0.25,-1.125 0.79167,-2.0833 0.54166,-1 1.4583,-1.6667 0.91666,-0.66667 2.3333,-0.66667 1.5,0 2.5833,0.41667 1.125,0.375 1.7917,0.95833 0.70833,0.58333 1.0417,1.25 0.33333,0.66667 0.33333,1.25 0,0.87499 -0.375,2.25 -0.33333,1.375 -0.875,3 -0.41666,1.3333 -0.91666,2.9166 -0.45833,1.5833 -0.875,3.3333 -0.41666,1.75 -0.66666,3.625 -0.25,1.875 -0.25,3.8333 0,1.4167 0.125,3 0.125,1.5417 0.54166,2.875 0.41667,1.2917 1.2083,2.1667 0.83333,0.83333 2.2083,0.83333 1.4167,0 2.9166,-0.33333 1.5417,-0.33333 3,-0.83333 1.5,-0.54167 2.7917,-1.25 1.3333,-0.70833 2.3333,-1.4583 2.1667,-1.625 3.8333,-2.875 1.6667,-1.25 3.0833,-1.25 1.2083,0 1.7083,0.66667 0.49999,0.62499 0.49999,1.2083 z"
       id="path46" />
  </g>
  <g
     aria-label="CustomBreeze"
     transform="matrix(1.029518,0,0,1.0382703,-6.2001055,15.845323)"
     id="text1163"
     style="font-size:49.3333px;line-height:1.25;font-family:Verdana;-inkscape-font-specification:Verdana;white-space:pre;shape-inside:url(#rect1165);display:inline">
    <path
       d="m 34.478498,26.41844 q -1.541665,0 -2.312498,-1.806639 -0.674479,-1.541666 -1.252603,-1.878905 -0.505859,-0.264974 -2.505207,-0.264974 -3.492836,0 -7.756506,5.347653 -5.781246,7.178381 -5.781246,13.610017 0,3.10742 1.999348,5.347653 2.047525,2.312498 4.938148,2.312498 2.481118,0 4.986325,-1.276691 1.397134,-0.722656 4.287757,-2.842447 1.373046,-1.011718 2.071614,-1.011718 1.035806,0 1.734373,0.794922 0.698568,0.770833 0.698568,1.734374 0,1.083983 -0.915364,1.902993 -6.359371,5.636715 -12.863273,5.636715 -4.986325,0 -8.430984,-3.830075 -3.324217,-3.709633 -3.324217,-8.768224 0,-8.16601 6.841141,-16.741526 5.708981,-7.154292 11.514316,-7.154292 1.180338,0 2.11979,0.120443 0.939453,0.09635 1.662109,0.337239 0.843098,-1.228515 2.192055,-1.228515 1.662109,0 2.095702,2.192056 0.385417,1.951171 0.385417,4.793617 0,0.987629 -0.529948,1.734374 -0.65039,0.939452 -1.854817,0.939452 z"
       style="font-family:'Comic Sans MS';-inkscape-font-specification:'Comic Sans MS';fill:#206d9e;fill-opacity:1"
       id="path1293" />
    <path
       d="m 60.614549,39.378067 q 0,1.734374 0.02409,5.203122 0.02409,3.468748 0.02409,5.203122 0,0.529947 0.07227,1.613931 0.09636,1.083984 0.09636,1.613931 0,1.035807 -0.698568,1.686197 -0.698567,0.674479 -1.710285,0.674479 -1.854817,0 -2.360676,-2.28841 -3.011065,1.565754 -6.937495,1.565754 -3.155597,0 -5.22721,-1.397135 -2.28841,-1.541665 -2.722004,-4.504554 -0.939452,-6.383459 -0.939452,-11.369784 0,-3.300128 0.722655,-7.51562 0.33724,-2.095702 2.28841,-2.095702 1.035807,0 1.734374,0.674478 0.698568,0.650391 0.698568,1.686197 0,1.108073 -0.361328,3.541014 -0.33724,2.432941 -0.33724,3.709633 0,4.022784 0.264974,6.889318 0.264974,2.866535 0.794921,4.600909 0.794922,0.433593 1.565755,0.674478 0.770833,0.216797 1.517577,0.216797 3.227862,0 6.817053,-1.035807 l -0.02409,-4.88997 -0.04818,-4.673174 q 0,-5.203122 0.457682,-9.033198 0.264974,-2.216144 2.336587,-2.216144 1.035807,0 1.734374,0.674479 0.698567,0.674478 0.65039,1.686196 z"
       style="font-family:'Comic Sans MS';-inkscape-font-specification:'Comic Sans MS';fill:#206d9e;fill-opacity:1"
       id="path1295" />
    <path
       d="m 82.872346,34.897601 q -1.324869,0 -1.854816,-0.891275 -0.361328,-0.626302 -0.626302,-2.601561 -1.806639,0.457682 -5.564449,1.686197 -3.878253,1.541666 -3.902342,3.805987 0.722656,0.264974 1.421223,0.385417 5.540361,0.987629 8.238276,2.722003 3.92643,2.529295 3.92643,7.322912 0,3.92643 -3.396482,5.925777 -2.818358,1.63802 -7.130204,1.63802 -3.155597,0 -6.022131,-1.059895 -3.709633,-1.348957 -3.709633,-3.75781 0,-0.963541 0.746744,-1.686197 0.770833,-0.722656 1.734374,-0.722656 0.746744,0 1.927082,1.15625 0.578125,0.554036 2.601561,0.915364 1.613931,0.289062 2.722003,0.289062 2.023436,0 3.565102,-0.481771 2.240233,-0.698567 2.240233,-2.216144 0,-3.27604 -4.57682,-4.432289 l -2.505207,-0.554036 q -3.203774,-0.698567 -4.552731,-1.63802 -1.951171,-1.348957 -1.951171,-4.070961 0,-5.034502 4.74544,-7.17838 1.445311,-0.650391 4.624997,-1.541666 3.179685,-0.915364 4.552731,-1.541666 0.98763,-0.433593 2.143879,-0.433593 1.035807,0 1.686197,0.674478 0.674479,0.674479 0.674479,1.758463 0,0.698567 0.289062,2.047525 0.313151,1.348957 0.313151,2.047524 0,1.083984 -0.674479,1.758463 -0.65039,0.674478 -1.686197,0.674478 z"
       style="font-family:'Comic Sans MS';-inkscape-font-specification:'Comic Sans MS';fill:#206d9e;fill-opacity:1"
       id="path1297" />
    <path
       d="m 106.74408,32.922342 q -0.50586,0 -1.20443,-0.04818 -0.67448,-0.04818 -1.18034,-0.04818 -0.55403,0 -3.27604,0.361328 l 0.45769,14.236319 0.0241,1.059895 0.0241,1.228515 q 0.0964,5.275387 -2.529293,5.275387 -0.963541,0 -1.686196,-0.626301 -0.698568,-0.626302 -0.698568,-1.565755 0,-0.915364 0.07227,-2.746092 0.07227,-1.830728 0.07227,-2.746092 l -0.48177,-14.067699 q -1.758462,-0.07227 -5.347653,-0.409505 -2.143879,-0.289062 -2.143879,-2.384764 0,-1.059895 0.650391,-1.758462 0.65039,-0.698568 1.662108,-0.698568 l 5.05859,0.409505 q 0,-1.228514 -0.120442,-3.276039 -0.09635,-2.071613 -0.09635,-2.986977 0,-1.011718 0.698567,-1.662109 0.698567,-0.674478 1.710285,-0.674478 2.16796,0 2.52929,3.541013 0.0723,0.891275 0.0723,2.143879 l -0.0482,1.397134 -0.0241,1.493489 q 2.98698,-0.385417 3.42057,-0.385417 2.50521,0 3.27604,0.240886 1.4694,0.48177 1.4694,2.264321 0,1.059895 -0.67448,1.758463 -0.65039,0.674478 -1.68619,0.674478 z"
       style="font-family:'Comic Sans MS';-inkscape-font-specification:'Comic Sans MS';fill:#206d9e;fill-opacity:1"
       id="path1299" />
    <path
       d="m 122.90747,54.86699 q -4.04687,0 -6.96158,-2.986978 -3.25195,-3.324216 -3.42057,-8.936843 -0.14453,-5.444007 2.74609,-9.587233 3.37239,-4.889971 9.39453,-4.889971 4.8177,0 7.29882,4.4082 1.97526,3.565102 1.90299,8.575516 -0.0723,5.347652 -2.79427,9.129551 -3.08333,4.287758 -8.16601,4.287758 z m 1.44531,-21.511054 q -3.54101,-0.02409 -5.51627,3.372393 -1.56575,2.722004 -1.56575,6.21484 0,3.492837 1.90299,5.444007 1.58984,1.613931 3.73372,1.613931 2.50521,0 4.31185,-1.830728 2.04752,-2.023436 2.16797,-5.468095 0.33724,-9.32226 -5.03451,-9.346348 z"
       style="font-family:'Comic Sans MS';-inkscape-font-specification:'Comic Sans MS';fill:#206d9e;fill-opacity:1"
       id="path1301" />
    <path
       d="m 170.41005,55.445114 q -1.97526,0 -2.3125,-2.095701 -0.43359,-2.649738 -0.86719,-7.467444 l -0.81901,-7.467443 q -0.24088,-1.662108 -0.81901,-3.251951 -0.81901,-2.167967 -1.78255,-2.167967 -0.89127,0 -3.32421,1.517577 -2.3125,1.397135 -3.03516,2.240233 -0.0241,2.264321 0.12044,4.528643 l 0.72266,6.431636 q 0.45768,3.805988 0.45768,6.287106 0,1.059895 -0.67448,1.734374 -0.65039,0.698567 -1.68619,0.698567 -1.03581,0 -1.71029,-0.698567 -0.65039,-0.674479 -0.65039,-1.734374 0,-2.914712 -0.60221,-8.599604 -0.57813,-5.708981 -0.57813,-8.623692 0,-2.553384 -0.72265,-3.974607 -1.6862,0.770833 -3.42057,2.505206 l -2.84245,3.179686 q -0.38542,0.578125 -1.22852,1.517577 0,1.445312 -0.26497,4.263669 -0.26497,2.818358 -0.26497,4.167315 0,0.722656 0.21679,2.023436 0.24089,1.300781 0.24089,1.878905 0,0.98763 -0.74674,1.662109 -0.72266,0.674478 -1.71029,0.674478 -2.722,0 -2.722,-6.190751 0,-1.445311 0.26497,-4.311846 0.26497,-2.866535 0.26497,-4.311846 0,-1.276692 -0.24088,-3.830076 -0.2168,-2.553384 -0.2168,-3.854164 0,-5.468095 2.45703,-5.468095 0.93945,0 1.71029,0.819009 0.79492,0.81901 0.79492,1.782551 0,0.457682 -0.12044,1.421223 -0.12045,0.963542 -0.12045,1.469401 l 0.0482,2.529295 q 1.2526,-2.577472 3.68554,-4.649086 2.43295,-2.095702 4.14323,-2.095702 3.7819,0 5.20312,3.757811 1.32487,-1.758463 3.1556,-2.62565 1.83073,-0.891275 4.1914,-0.891275 4.02279,0 5.49219,4.335934 0.28906,0.867187 0.98763,6.768876 0.67448,4.143227 1.73437,13.802726 0.0723,0.963541 -0.65039,1.63802 -0.72266,0.674478 -1.75846,0.674478 z"
       style="font-family:'Comic Sans MS';-inkscape-font-specification:'Comic Sans MS';fill:#206d9e;fill-opacity:1"
       id="path1303" />
    <path
       d="m 196.13659,52.482226 q -5.41992,2.11979 -13.8509,2.11979 -1.03581,0 -1.97526,-0.98763 -0.91536,-0.963541 -0.91536,-1.999347 v -7.009761 q 0,-3.44466 0.43359,-9.828119 0.48177,-6.889319 0.52995,-9.97265 -0.0241,-2.216144 0.26497,-6.600256 0.16862,-1.204426 0.79492,-1.589843 3.27604,-1.011718 7.44336,-1.011718 4.23958,0 8.14192,2.890623 4.50455,3.324217 4.50455,8.214188 0,6.190751 -4.8177,9.755853 3.61328,1.541665 5.39583,3.42057 1.80664,1.878905 1.80664,4.09505 0,2.914712 -3.1556,5.636715 -2.19205,1.927082 -4.60091,2.866535 z m -7.27473,-31.965475 q -2.62565,0 -3.68555,0.16862 l -0.0482,4.215492 -0.48177,9.32226 q 3.42057,0.289062 3.66145,0.264974 3.63737,-0.289063 5.94987,-2.264322 2.48112,-2.143879 2.48112,-5.516272 0,-2.28841 -2.5293,-4.239581 -2.52929,-1.951171 -5.34765,-1.951171 z m 2.69791,19.29491 -2.55338,-0.409505 q -0.31315,0 -0.96354,0.04818 -0.6263,0.02409 -0.96354,0.02409 -1.30078,0 -2.77018,-0.216796 -0.14453,3.035154 -0.14453,5.419918 v 4.986325 q 6.31119,-0.216797 10.2858,-1.782551 1.68619,-0.65039 3.22786,-2.023436 1.4694,-1.252603 1.4694,-1.878905 0,-1.132161 -3.08333,-2.553384 -2.3125,-1.083984 -4.50456,-1.613931 z"
       style="font-family:'Comic Sans MS';-inkscape-font-specification:'Comic Sans MS';fill:#206d9e;fill-opacity:1"
       id="path1305" />
    <path
       d="m 227.98163,35.644346 q -0.16862,3.011066 -2.40885,3.011066 -2.07161,0 -2.07161,-2.384765 0,-0.457682 -0.0723,-1.686196 l -0.0723,-2.023437 q -3.80599,0.457682 -6.0944,2.143879 -2.14388,1.565754 -3.5651,4.721351 l 0.0482,13.200513 q 0,2.432941 -2.38477,2.432941 -2.11979,0 -2.11979,-2.432941 V 35.716611 q 0,-0.794921 0.0482,-2.384764 0.0723,-1.589842 0.0723,-2.384764 0,-2.432941 2.11979,-2.432941 2.36068,0 2.38477,3.998695 4.625,-4.456377 10.26171,-4.456377 1.95117,0 2.91471,1.4694 0.96354,1.4694 0.96354,4.432289 0,1.252603 -0.0241,1.686197 z"
       style="font-family:'Comic Sans MS';-inkscape-font-specification:'Comic Sans MS';fill:#206d9e;fill-opacity:1"
       id="path1307" />
    <path
       d="m 244.1932,54.553839 q -5.44401,0 -8.8164,-2.722004 -3.68555,-3.011065 -3.68555,-8.430984 0,-6.263017 3.03516,-10.502597 3.30012,-4.624997 8.8164,-4.624997 3.99869,0 6.52799,1.348957 3.10742,1.662109 3.10742,5.106768 0,2.408852 -2.72201,4.384112 -1.20442,0.867187 -5.10676,2.697914 l -9.20182,4.360024 q 1.34896,1.999347 3.3483,3.011065 2.02344,1.011719 4.69727,1.011719 1.66211,0 3.90234,-0.626302 2.84244,-0.794921 3.66145,-2.071613 0.81901,-1.300781 1.75847,-1.300781 0.8431,0 1.49349,0.65039 0.67447,0.626302 0.67447,1.469401 0,2.673826 -4.31184,4.600908 -3.68555,1.63802 -7.17838,1.63802 z m -0.65039,-21.944647 q -2.9388,0 -4.88997,2.288409 -1.95117,2.264322 -2.91472,6.841142 l 7.39518,-3.516925 q 4.36003,-2.11979 6.21484,-3.685544 -2.07161,-1.927082 -5.80533,-1.927082 z"
       style="font-family:'Comic Sans MS';-inkscape-font-specification:'Comic Sans MS';fill:#206d9e;fill-opacity:1"
       id="path1309" />
    <path
       d="m 271.22053,54.553839 q -5.44401,0 -8.8164,-2.722004 -3.68555,-3.011065 -3.68555,-8.430984 0,-6.263017 3.03516,-10.502597 3.30012,-4.624997 8.8164,-4.624997 3.99869,0 6.52799,1.348957 3.10742,1.662109 3.10742,5.106768 0,2.408852 -2.72201,4.384112 -1.20442,0.867187 -5.10676,2.697914 l -9.20182,4.360024 q 1.34896,1.999347 3.3483,3.011065 2.02344,1.011719 4.69727,1.011719 1.6621,0 3.90234,-0.626302 2.84244,-0.794921 3.66145,-2.071613 0.81901,-1.300781 1.75847,-1.300781 0.84309,0 1.49348,0.65039 0.67448,0.626302 0.67448,1.469401 0,2.673826 -4.31184,4.600908 -3.68555,1.63802 -7.17838,1.63802 z m -0.65039,-21.944647 q -2.9388,0 -4.88998,2.288409 -1.95117,2.264322 -2.91471,6.841142 l 7.39518,-3.516925 q 4.36002,-2.11979 6.21484,-3.685544 -2.07161,-1.927082 -5.80533,-1.927082 z"
       style="font-family:'Comic Sans MS';-inkscape-font-specification:'Comic Sans MS';fill:#206d9e;fill-opacity:1"
       id="path1311" />
    <path
       d="m 306.87155,33.958149 q -2.14388,2.577472 -5.49219,7.467443 -3.87825,5.684892 -5.68489,8.045568 2.5293,-0.120443 4.4082,-0.120443 0.93945,0 2.79427,0.361328 1.85482,0.361328 2.79427,0.361328 1.05989,0 1.71028,0.698567 0.67448,0.674479 0.67448,1.734374 0,1.083984 -0.67448,1.758463 -0.65039,0.674478 -1.71028,0.674478 -0.93945,0 -2.79427,-0.361328 -1.85482,-0.361328 -2.79427,-0.361328 -5.41992,0 -10.2858,0.98763 -0.50586,0.09635 -0.89128,0.09635 -2.33658,0 -2.33658,-2.047525 0,-1.204426 1.20442,-2.312498 6.28711,-5.684892 13.68229,-17.705067 -3.20378,0.192708 -4.64909,0.192708 -3.5651,0 -7.32291,-0.554036 -2.14388,-0.313151 -2.14388,-2.384764 0,-1.059895 0.65039,-1.758462 0.65039,-0.722656 1.63802,-0.722656 1.18034,0 3.5651,0.289062 2.38477,0.264974 3.61328,0.264974 1.63802,0 4.91406,-0.216797 3.27604,-0.240885 4.91406,-0.240885 2.04752,0 2.04752,1.686197 0,1.951171 -1.83072,4.167315 z"
       style="font-family:'Comic Sans MS';-inkscape-font-specification:'Comic Sans MS';fill:#206d9e;fill-opacity:1"
       id="path1313" />
    <path
       d="m 324.79342,54.553839 q -5.44401,0 -8.8164,-2.722004 -3.68555,-3.011065 -3.68555,-8.430984 0,-6.263017 3.03516,-10.502597 3.30012,-4.624997 8.8164,-4.624997 3.99869,0 6.52799,1.348957 3.10742,1.662109 3.10742,5.106768 0,2.408852 -2.72201,4.384112 -1.20442,0.867187 -5.10676,2.697914 l -9.20182,4.360024 q 1.34896,1.999347 3.3483,3.011065 2.02344,1.011719 4.69727,1.011719 1.66211,0 3.90234,-0.626302 2.84244,-0.794921 3.66145,-2.071613 0.81901,-1.300781 1.75847,-1.300781 0.8431,0 1.49349,0.65039 0.67447,0.626302 0.67447,1.469401 0,2.673826 -4.31184,4.600908 -3.68555,1.63802 -7.17838,1.63802 z m -0.65039,-21.944647 q -2.9388,0 -4.88997,2.288409 -1.95117,2.264322 -2.91472,6.841142 l 7.39518,-3.516925 q 4.36003,-2.11979 6.21484,-3.685544 -2.07161,-1.927082 -5.80533,-1.927082 z"
       style="font-family:'Comic Sans MS';-inkscape-font-specification:'Comic Sans MS';fill:#206d9e;fill-opacity:1"
       id="path1315" />
  </g>
  <g
     aria-label="based on"
     transform="matrix(1.8665865,0,0,1.8665865,-126.289,-175.57896)"
     id="text1079"
     style="font-size:13.3333px;line-height:1.25;white-space:pre;shape-inside:url(#rect1081);display:inline">
    <path
       d="m 123.16601,149.69362 q -0.9961,0 -1.8099,-0.39062 -0.20833,0.3125 -0.50781,0.3125 -0.24739,0 -0.42317,-0.17578 -0.16927,-0.16927 -0.16927,-0.42969 0,-0.16927 0.013,-0.5013 0.0195,-0.33203 0.0195,-0.5013 0,-0.6901 -0.0391,-2.0638 -0.0326,-1.3802 -0.0326,-2.07031 0,-0.47526 0.007,-1.79687 0.007,-1.32812 0.007,-1.80989 0,-0.39062 0.16276,-0.70312 0.21484,-0.39714 0.59244,-0.39714 0.48828,0 0.48828,0.56641 0,0.0911 -0.0326,0.26693 -0.0326,0.17578 -0.0326,0.26692 l -0.0195,1.42578 -0.013,1.66015 q 0.5664,-0.38411 1.07421,-0.57291 0.51432,-0.19532 0.96354,-0.19532 1.39974,0 2.27213,1.07422 0.82031,1.00911 0.82031,2.48046 0,1.48437 -0.95703,2.51953 -0.95703,1.03515 -2.3828,1.03515 z m 0.24739,-5.87889 q -0.53385,0 -1.09375,0.29948 -0.27343,0.14974 -0.93749,0.64453 l -0.013,1.1263 0.007,1.01562 0.007,1.06771 q 0.3125,0.14322 0.8789,0.36458 0.40364,0.1237 0.90495,0.1237 0.944,0 1.54947,-0.66407 0.60547,-0.66406 0.60547,-1.65364 0,-0.97005 -0.48828,-1.62109 -0.52734,-0.70312 -1.41927,-0.70312 z"
       style="font-family:'Comic Sans MS';-inkscape-font-specification:'Comic Sans MS';fill:#aa0000"
       id="path1318" />
    <path
       d="m 133.12041,149.84987 q -0.1237,0 -0.44922,-0.28646 -0.29297,-0.26692 -0.4362,-0.47526 -0.625,0.33855 -1.10025,0.50782 -0.47526,0.17578 -0.79427,0.17578 -1.52344,0 -2.22005,-0.85938 -0.65755,-0.80729 -0.65755,-2.47395 0,-1.57552 1.08073,-2.6953 1.08723,-1.11979 2.59114,-1.11979 0.5664,0 1.26952,0.29297 0.88542,0.36458 0.88542,0.8789 0,0.17578 -0.13021,0.3125 -0.0651,0.24739 -0.10417,0.8138 -0.0325,0.5664 -0.0391,1.45182 -0.007,0.80729 0.11068,1.27604 0.0651,0.28645 0.41015,1.14583 0.0456,0.11718 0.14974,0.34505 l 0.0391,0.11067 q 0,0.26042 -0.18229,0.42969 -0.18229,0.16927 -0.42317,0.16927 z m -1.35417,-4.52473 q 0,-0.27994 0.0326,-0.60546 0.0391,-0.33203 0.11067,-0.70313 -0.24088,-0.12369 -0.41666,-0.18229 -0.16927,-0.0586 -0.27344,-0.0586 -1.00911,0 -1.74479,0.82682 -0.72916,0.82031 -0.72916,1.89453 0,1.0677 0.3776,1.60155 0.37761,0.53386 1.13281,0.53386 0.625,0 1.0612,-0.22787 0.23437,-0.1237 0.65755,-0.49479 -0.20834,-1.72525 -0.20834,-2.58463 z"
       style="font-family:'Comic Sans MS';-inkscape-font-specification:'Comic Sans MS';fill:#aa0000"
       id="path1320" />
    <path
       d="m 139.2532,144.40718 q -0.35807,0 -0.5013,-0.24089 -0.0977,-0.16927 -0.16927,-0.70312 -0.48828,0.1237 -1.5039,0.45573 -1.04817,0.41666 -1.05468,1.02864 0.19531,0.0716 0.38411,0.10417 1.49739,0.26692 2.22656,0.73567 1.06119,0.68359 1.06119,1.97916 0,1.0612 -0.91796,1.60156 -0.76172,0.44271 -1.92708,0.44271 -0.85287,0 -1.6276,-0.28646 -1.0026,-0.36458 -1.0026,-1.01562 0,-0.26042 0.20182,-0.45573 0.20833,-0.19531 0.46875,-0.19531 0.20182,0 0.52083,0.3125 0.15625,0.14974 0.70312,0.24739 0.4362,0.0781 0.73568,0.0781 0.54687,0 0.96354,-0.13021 0.60546,-0.1888 0.60546,-0.59896 0,-0.88541 -1.23697,-1.19791 l -0.67708,-0.14974 q -0.86589,-0.1888 -1.23047,-0.44271 -0.52734,-0.36458 -0.52734,-1.10025 0,-1.36068 1.28255,-1.9401 0.39062,-0.17578 1.24999,-0.41667 0.85938,-0.24739 1.23047,-0.41666 0.26693,-0.11719 0.57942,-0.11719 0.27995,0 0.45573,0.18229 0.18229,0.18229 0.18229,0.47526 0,0.1888 0.0781,0.55338 0.0846,0.36458 0.0846,0.55339 0,0.29296 -0.18229,0.47526 -0.17578,0.18229 -0.45573,0.18229 z"
       style="font-family:'Comic Sans MS';-inkscape-font-specification:'Comic Sans MS';fill:#aa0000"
       id="path1322" />
    <path
       d="m 144.38991,149.71966 q -1.47135,0 -2.38281,-0.73567 -0.99609,-0.8138 -0.99609,-2.27864 0,-1.69271 0.82031,-2.83854 0.89193,-1.24999 2.38281,-1.24999 1.08072,0 1.76432,0.36458 0.83984,0.44922 0.83984,1.3802 0,0.65104 -0.73568,1.1849 -0.32552,0.23437 -1.3802,0.72916 l -2.48697,1.17838 q 0.36458,0.54037 0.90494,0.8138 0.54687,0.27344 1.26953,0.27344 0.44922,0 1.05468,-0.16927 0.76823,-0.21484 0.98958,-0.55989 0.22136,-0.35157 0.47526,-0.35157 0.22787,0 0.40365,0.17579 0.18229,0.16927 0.18229,0.39713 0,0.72265 -1.16536,1.24349 -0.99609,0.4427 -1.9401,0.4427 z m -0.17578,-5.93097 q -0.79427,0 -1.32161,0.61849 -0.52735,0.61197 -0.78776,1.84895 l 1.99869,-0.95052 q 1.17838,-0.57291 1.67968,-0.99609 -0.55989,-0.52083 -1.569,-0.52083 z"
       style="font-family:'Comic Sans MS';-inkscape-font-specification:'Comic Sans MS';fill:#aa0000"
       id="path1324" />
    <path
       d="m 154.6503,143.6715 q -0.0781,0.95703 -0.0781,1.91406 0,2.16796 0.20182,3.27473 0.013,0.0911 0.013,0.14974 0,0.26042 -0.18229,0.42969 -0.18229,0.16927 -0.42318,0.16927 -0.40364,0 -0.59244,-0.58594 -0.46875,0.34505 -0.97656,0.52083 -0.5013,0.17578 -1.04818,0.17578 -1.34765,0 -2.23307,-0.89843 -0.91145,-0.91797 -0.91145,-2.35677 0,-1.73827 0.91796,-2.78645 0.92448,-1.04817 2.39583,-1.04817 0.75521,0 1.16536,0.23437 l 0.61198,0.44922 q 0.0911,-2.74088 0.21484,-3.6914 0.0846,-0.57942 0.59245,-0.57942 0.59245,0 0.59245,0.63151 0,0.90494 -0.26042,3.99738 z m -2.89062,0.16927 q -1.09374,0 -1.64062,0.65104 -0.54687,0.64453 -0.54687,1.94661 0,0.83984 0.59245,1.44531 0.59895,0.60547 1.39973,0.60547 0.54688,0 0.92448,-0.20182 0.22135,-0.11719 0.72265,-0.54037 0.0977,-0.0846 0.1888,-0.20182 l -0.0195,-1.1263 0.007,-0.75521 0.013,-0.76822 q -0.24739,-0.52735 -0.65755,-0.78776 -0.41015,-0.26693 -0.98307,-0.26693 z"
       style="font-family:'Comic Sans MS';-inkscape-font-specification:'Comic Sans MS';fill:#aa0000"
       id="path1326" />
    <path
       d="m 162.912,149.8043 q -1.09375,0 -1.88151,-0.80729 -0.8789,-0.89844 -0.92448,-2.41536 -0.0391,-1.47135 0.74219,-2.59114 0.91146,-1.32161 2.53906,-1.32161 1.30208,0 1.97265,1.1914 0.53385,0.96354 0.51432,2.31771 -0.0195,1.4453 -0.75521,2.46744 -0.83333,1.15885 -2.20702,1.15885 z m 0.39062,-5.81379 q -0.95703,-0.007 -1.49088,0.91146 -0.42318,0.73567 -0.42318,1.67968 0,0.94401 0.51432,1.47135 0.42969,0.4362 1.00912,0.4362 0.67708,0 1.16536,-0.49479 0.55338,-0.54688 0.58593,-1.47786 0.0911,-2.51953 -1.36067,-2.52604 z"
       style="font-family:'Comic Sans MS';-inkscape-font-specification:'Comic Sans MS';fill:#aa0000"
       id="path1328" />
    <path
       d="m 172.47578,149.88242 q -0.5599,0 -0.63151,-0.61197 l -0.18229,-1.42578 q -0.0911,-0.76172 -0.0911,-1.42578 0,-0.18229 0.0195,-0.61849 0.026,-0.43619 0.026,-0.61849 0,-1.40624 -0.52083,-1.40624 -0.72916,0 -1.39322,0.86588 -0.59896,0.78776 -0.9375,1.99218 -0.013,0.25391 -0.0586,0.63802 -0.0391,0.32552 -0.0391,0.63151 0,0.19531 0.0391,0.58594 0.0391,0.39062 0.0391,0.58593 0,0.29297 -0.18229,0.47526 -0.17578,0.18229 -0.45573,0.18229 -0.28646,0 -0.46224,-0.18229 -0.17578,-0.18229 -0.17578,-0.47526 0,-0.19531 -0.0456,-0.58593 -0.0391,-0.39063 -0.0391,-0.58594 0,-0.67057 0.0911,-1.85546 0.0977,-1.19141 0.0977,-1.86198 0,-0.20833 -0.026,-0.61848 -0.0195,-0.41016 -0.0195,-0.61849 0,-0.27995 0.18229,-0.45573 0.18881,-0.18229 0.46224,-0.18229 0.59896,0 0.65755,0.84635 l 0.0195,0.76172 q 1.09375,-1.45833 2.24609,-1.45833 1.04167,0 1.45182,0.91796 0.27995,0.61198 0.30599,1.80989 v 0.65756 l -0.007,0.60546 q 0,0.54037 0.13672,1.39974 0.14323,0.85286 0.14323,1.38671 0,0.28646 -0.1888,0.46224 -0.1823,0.18229 -0.46224,0.18229 z"
       style="font-family:'Comic Sans MS';-inkscape-font-specification:'Comic Sans MS';fill:#aa0000"
       id="path1330" />
  </g>
</svg>
